# Blender 5.1.2
# www.blender.org
mtllib pm_mag_12.mtl
o ПМ_маг.003
v -0.025503 0.095826 -0.001720
v -0.025503 0.095826 -0.047836
v 0.025503 0.095826 -0.047836
v 0.025503 0.095826 -0.001720
v 0.025503 -0.066109 -0.020423
v 0.025503 -0.066109 0.025693
v -0.025503 -0.066109 0.025693
v -0.025503 -0.066109 -0.020423
v 0.025503 0.068837 -0.043268
v 0.025503 0.041848 -0.038698
v 0.025503 0.014859 -0.034129
v 0.025503 -0.012130 -0.029560
v 0.025503 -0.039119 -0.024991
v 0.025503 0.068837 0.002849
v 0.025503 0.041848 0.007418
v 0.025503 0.014859 0.011987
v 0.025503 -0.012130 0.016555
v 0.025503 -0.039119 0.021124
v -0.025503 0.068837 0.002849
v -0.025503 0.041848 0.007418
v -0.025503 0.014859 0.011987
v -0.025503 -0.012130 0.016555
v -0.025503 -0.039119 0.021124
v -0.025503 0.068837 -0.043268
v -0.025503 0.041848 -0.038698
v -0.025503 0.014859 -0.034129
v -0.025503 -0.012130 -0.029560
v -0.025503 -0.039119 -0.024991
v -0.025503 0.095826 -0.024778
v -0.025503 -0.066109 0.002635
v -0.025503 -0.039119 -0.001934
v -0.025503 -0.012130 -0.006502
v -0.025503 0.014859 -0.011071
v -0.025503 0.041848 -0.015640
v -0.025503 0.068837 -0.020209
v 0.025503 0.095826 -0.024233
v 0.025503 -0.066109 0.003180
v 0.025503 -0.039119 -0.001389
v 0.025503 -0.012130 -0.005958
v 0.025503 0.014859 -0.010526
v 0.025503 0.041848 -0.015095
v 0.025503 0.068837 -0.019664
v -0.028125 -0.074294 0.062421
v -0.028125 0.102790 0.032444
v -0.028125 -0.074294 -0.032445
v -0.028125 0.102790 -0.062421
v 0.028125 -0.074294 0.062421
v 0.028125 0.102790 0.032445
v 0.028125 -0.074294 -0.032445
v 0.028125 0.102790 -0.062421
v -0.034682 -0.123035 0.062144
v 0.034682 -0.123035 0.062144
v -0.034682 -0.074294 0.062421
v 0.034682 -0.074294 0.062421
v -0.034682 -0.132118 -0.041675
v -0.025506 -0.132918 -0.050818
v 0.025506 -0.132918 -0.050818
v 0.034682 -0.132118 -0.041675
v 0.034682 -0.074294 -0.041797
v 0.025506 -0.074294 -0.050972
v -0.028125 -0.074294 -0.011790
v -0.025506 -0.074294 -0.050972
v -0.034682 -0.074294 -0.041797
v -0.028125 -0.074294 0.019832
v -0.028125 0.102790 -0.010146
v -0.028125 0.102790 -0.041767
v 0.028125 -0.074294 0.019832
v 0.028125 -0.074294 -0.011790
v 0.028125 0.102790 -0.041767
v 0.028125 0.102790 -0.010146
v -0.028125 0.070379 0.037930
v -0.028125 0.070379 -0.056934
v 0.028125 0.070379 -0.056934
v 0.028125 0.070379 0.037930
v 0.028125 0.070379 -0.036281
v 0.028125 0.070379 -0.004659
v -0.028125 0.070379 -0.004659
v -0.028125 0.070379 -0.036281
v -0.028125 -0.040660 -0.038137
v 0.028125 -0.040660 -0.038137
v 0.028125 -0.040660 0.056728
v 0.028125 -0.040660 -0.017483
v 0.028125 -0.040660 0.014138
v -0.028125 -0.040660 0.014138
v -0.028125 -0.040660 -0.017483
v -0.028125 -0.040660 0.056728
v -0.028125 0.102790 0.032445
v -0.018337 0.125960 0.028290
v -0.028125 0.102790 -0.042073
v -0.018337 0.125960 -0.034405
v 0.028125 0.102790 0.032445
v 0.018337 0.125960 0.028290
v 0.028125 0.102790 -0.042073
v 0.018337 0.125960 -0.034405
v -0.019885 0.109595 0.012558
v 0.000000 0.129439 0.013848
v -0.019885 0.113075 -0.040981
v 0.000000 0.132918 -0.039691
v 0.000000 0.089752 0.011268
v 0.019885 0.109595 0.012558
v 0.000000 0.093231 -0.042270
v 0.019885 0.113075 -0.040981
v -0.010814 0.114063 -0.056174
v 0.000000 0.124854 -0.055473
v 0.000000 0.103271 -0.056876
v 0.010814 0.114063 -0.056174
v -0.019885 0.112637 -0.034224
v 0.000000 0.132480 -0.032935
v 0.000000 0.092792 -0.035514
v 0.019885 0.112637 -0.034224
v -0.019885 0.110175 0.003659
v 0.019885 0.110175 0.003659
v 0.000000 0.130018 0.004949
v 0.000000 0.090331 0.002370
vn -1.0000 -0.0000 -0.0000
vn 1.0000 -0.0000 -0.0000
vn -0.0000 -0.1669 -0.9860
vn -0.0000 0.1669 0.9860
vn -0.0000 -0.0057 1.0000
vn -0.0000 1.0000 -0.0000
vn -0.0000 -1.0000 -0.0000
vn 0.9235 -0.0009 -0.3835
vn 0.9161 -0.0010 -0.4009
vn 0.3748 -0.0024 -0.9271
vn 0.3820 -0.0023 -0.9241
vn -0.9161 -0.0010 -0.4009
vn -0.9235 -0.0009 -0.3835
vn -0.3820 -0.0023 -0.9241
vn -0.3748 -0.0024 -0.9271
vn -0.0000 -0.9962 0.0872
vn -0.9212 0.3891 -0.0000
vn -0.0000 0.3142 -0.9494
vn 0.9212 0.3891 -0.0000
vn -0.0000 0.1765 0.9843
vn -0.0000 0.9979 0.0649
vn -0.8591 0.0332 -0.5108
vn -0.0000 0.8905 -0.4550
vn -0.0000 -0.9979 -0.0649
vn -0.0000 -0.0649 0.9979
vn -0.0000 0.0649 -0.9979
vn 0.8591 0.0332 -0.5108
vn -0.0000 -0.8241 -0.5665
vt 0.070326 0.888393
vt 0.070326 0.888203
vt 0.070439 0.888190
vt 0.070439 0.888379
vt 0.091318 0.930437
vt 0.091318 0.930434
vt 0.091320 0.930434
vt 0.091320 0.930437
vt 0.091318 0.930450
vt 0.091318 0.930448
vt 0.091320 0.930448
vt 0.091320 0.930450
vt 0.091318 0.930445
vt 0.091320 0.930445
vt 0.091318 0.930442
vt 0.091320 0.930442
vt 0.091318 0.930439
vt 0.091320 0.930440
vt 0.070326 0.889340
vt 0.070326 0.889150
vt 0.070439 0.889137
vt 0.070439 0.889326
vt 0.070326 0.888961
vt 0.070439 0.888947
vt 0.070326 0.888772
vt 0.070439 0.888758
vt 0.070326 0.888582
vt 0.070439 0.888569
vt 0.090389 0.929836
vt 0.090389 0.929825
vt 0.090395 0.929825
vt 0.090395 0.929835
vt 0.090389 0.929847
vt 0.090395 0.929846
vt 0.090389 0.929858
vt 0.090395 0.929857
vt 0.090389 0.929869
vt 0.090395 0.929868
vt 0.090389 0.929880
vt 0.090395 0.929879
vt 0.090389 0.929814
vt 0.090395 0.929814
vt 0.109976 0.929593
vt 0.109976 0.929417
vt 0.110084 0.929429
vt 0.110084 0.929606
vt 0.109976 0.929769
vt 0.110084 0.929782
vt 0.109976 0.929945
vt 0.110084 0.929958
vt 0.109976 0.930122
vt 0.110084 0.930134
vt 0.109976 0.930298
vt 0.110084 0.930311
vt 0.109976 0.929240
vt 0.110084 0.929253
vt 0.089742 0.887639
vt 0.089742 0.887412
vt 0.089843 0.887400
vt 0.089843 0.887627
vt 0.088640 0.887627
vt 0.088640 0.887400
vt 0.088915 0.887433
vt 0.088915 0.887660
vt 0.089171 0.887691
vt 0.089171 0.887463
vt 0.089379 0.887488
vt 0.089379 0.887716
vt 0.089843 0.887628
vt 0.090235 0.887400
vt 0.090235 0.887628
vt 0.090824 0.889046
vt 0.090824 0.888563
vt 0.090929 0.888563
vt 0.090929 0.889046
vt 0.089771 0.888995
vt 0.089379 0.888995
vt 0.089379 0.888698
vt 0.089771 0.888698
vt 0.090235 0.888536
vt 0.090235 0.888144
vt 0.090235 0.888098
vt 0.090235 0.888582
vt 0.089004 0.889642
vt 0.088860 0.889642
vt 0.088860 0.889250
vt 0.089004 0.889250
vt 0.090281 0.888945
vt 0.090281 0.888649
vt 0.090327 0.888649
vt 0.090327 0.889375
vt 0.090263 0.889439
vt 0.089907 0.889439
vt 0.089843 0.889375
vt 0.089843 0.888649
vt 0.089889 0.888649
vt 0.089889 0.888945
vt 0.090944 0.887913
vt 0.091050 0.887913
vt 0.091050 0.888004
vt 0.090944 0.888004
vt 0.090824 0.888654
vt 0.090719 0.888654
vt 0.090719 0.888563
vt 0.090719 0.889167
vt 0.090824 0.889167
vt 0.090719 0.888126
vt 0.090655 0.888190
vt 0.090299 0.888190
vt 0.090235 0.888126
vt 0.090719 0.887400
vt 0.090944 0.888255
vt 0.091050 0.888255
vt 0.090944 0.887400
vt 0.091050 0.887400
vt 0.089771 0.889359
vt 0.089379 0.889359
vt 0.089379 0.889215
vt 0.089771 0.889215
vt 0.089016 0.887445
vt 0.089016 0.887672
vt 0.088640 0.889642
vt 0.088640 0.889250
vt 0.089379 0.887683
vt 0.089379 0.887455
vt 0.089588 0.887430
vt 0.089588 0.887658
vt 0.089379 0.888462
vt 0.089588 0.888437
vt 0.088915 0.888439
vt 0.089016 0.888451
vt 0.089843 0.888411
vt 0.090235 0.888411
vt 0.089171 0.888470
vt 0.089379 0.888495
vt 0.088640 0.888406
vt 0.089742 0.888418
vt 0.089843 0.888406
vt 0.089742 0.888655
vt 0.089843 0.888642
vt 0.088640 0.888642
vt 0.088915 0.888675
vt 0.089171 0.888706
vt 0.089379 0.888731
vt 0.090235 0.888649
vt 0.089016 0.888687
vt 0.089588 0.888673
vt 0.090488 0.889670
vt 0.090327 0.889602
vt 0.090327 0.889293
vt 0.090488 0.889303
vt 0.090488 0.889293
vt 0.090327 0.889207
vt 0.090327 0.889026
vt 0.090488 0.889016
vt 0.090327 0.888717
vt 0.090488 0.888649
vt 0.090399 0.888582
vt 0.090235 0.888514
vt 0.090235 0.888258
vt 0.090399 0.888190
vt 0.089032 0.889250
vt 0.088640 0.888731
vt 0.089032 0.888731
vt 0.089288 0.889168
vt 0.089032 0.889168
vt 0.089288 0.888731
vt 0.091412 0.930378
vt 0.091541 0.930370
vt 0.091541 0.930413
vt 0.091412 0.930422
vt 0.090558 0.930226
vt 0.090552 0.930072
vt 0.090641 0.930072
vt 0.090645 0.930155
vt 0.108535 0.930952
vt 0.108407 0.930943
vt 0.108407 0.930886
vt 0.108535 0.930894
vt 0.091257 0.930327
vt 0.091076 0.930329
vt 0.091076 0.930148
vt 0.091257 0.930146
vt 0.108664 0.930943
vt 0.108664 0.930886
vt 0.091670 0.930132
vt 0.091541 0.930124
vt 0.091541 0.930066
vt 0.091670 0.930075
vt 0.090379 0.930097
vt 0.090463 0.930072
vt 0.090459 0.930155
vt 0.090375 0.930181
vt 0.090546 0.930226
vt 0.090392 0.930273
vt 0.090712 0.930273
vt 0.090728 0.930181
vt 0.091670 0.930422
vt 0.091670 0.930378
vt 0.090310 0.930241
vt 0.090181 0.930249
vt 0.090181 0.930205
vt 0.090310 0.930197
vt 0.090052 0.930241
vt 0.090052 0.930197
vt 0.109766 0.931124
vt 0.109895 0.931116
vt 0.109895 0.931362
vt 0.109766 0.931370
vt 0.091412 0.930075
vt 0.091412 0.930132
vt 0.110024 0.931370
vt 0.110024 0.931124
vt 0.108664 0.931189
vt 0.108535 0.931197
vt 0.108407 0.931189
s 1
usemtl Material.025
f 35/1/1 29/2/1 2/3/1 24/4/1
f 42/5/2 36/6/2 4/7/2 14/8/2
f 37/9/2 38/10/2 18/11/2 6/12/2
f 38/10/2 39/13/2 17/14/2 18/11/2
f 39/13/2 40/15/2 16/16/2 17/14/2
f 40/15/2 41/17/2 15/18/2 16/16/2
f 41/17/2 42/5/2 14/8/2 15/18/2
f 30/19/1 31/20/1 28/21/1 8/22/1
f 31/20/1 32/23/1 27/24/1 28/21/1
f 32/23/1 33/25/1 26/26/1 27/24/1
f 33/25/1 34/27/1 25/28/1 26/26/1
f 34/27/1 35/1/1 24/4/1 25/28/1
f 20/29/1 19/30/1 35/31/1 34/32/1
f 21/33/1 20/29/1 34/32/1 33/34/1
f 22/35/1 21/33/1 33/34/1 32/36/1
f 23/37/1 22/35/1 32/36/1 31/38/1
f 7/39/1 23/37/1 31/38/1 30/40/1
f 19/30/1 1/41/1 29/42/1 35/31/1
f 10/43/2 9/44/2 42/45/2 41/46/2
f 11/47/2 10/43/2 41/46/2 40/48/2
f 12/49/2 11/47/2 40/48/2 39/50/2
f 13/51/2 12/49/2 39/50/2 38/52/2
f 5/53/2 13/51/2 38/52/2 37/54/2
f 9/44/2 3/55/2 36/56/2 42/45/2
f 78/57/1 66/58/1 46/59/1 72/60/1
f 72/61/3 46/62/3 50/63/3 73/64/3
f 76/65/2 70/66/2 48/67/2 74/68/2
f 74/69/4 48/59/4 44/70/4 71/71/4
f 54/72/5 53/73/5 51/74/5 52/75/5
f 70/76/6 65/77/6 44/78/6 48/79/6
f 47/80/6 43/81/6 53/82/6 54/83/6
f 49/84/7 68/85/7 61/86/7 45/87/7
f 67/88/6 47/89/6 54/90/6 59/91/6 60/92/6 62/93/6 63/94/6 53/95/6 43/96/6 64/97/6
f 59/98/8 58/99/9 57/100/10 60/101/11
f 55/102/12 63/103/13 62/104/14 56/73/15
f 53/105/1 63/103/13 55/102/12 51/106/1
f 55/107/16 56/108/16 57/109/16 58/110/16 52/70/16 51/111/16
f 62/112/14 60/101/11 57/100/10 56/113/15
f 59/98/8 54/114/2 52/115/2 58/99/9
f 50/116/6 46/117/6 66/118/6 69/119/6
f 73/64/2 50/63/2 69/120/2 75/121/2
f 68/85/7 67/122/7 64/123/7 61/86/7
f 69/119/6 66/118/6 65/77/6 70/76/6
f 75/121/2 69/120/2 70/66/2 76/65/2
f 71/124/1 44/125/1 65/126/1 77/127/1
f 77/127/1 65/126/1 66/58/1 78/57/1
f 86/128/1 71/124/1 77/127/1 84/129/1
f 80/130/2 73/64/2 75/121/2 82/131/2
f 81/132/4 74/69/4 71/71/4 86/133/4
f 83/134/2 76/65/2 74/68/2 81/135/2
f 79/136/3 72/61/3 73/64/3 80/130/3
f 85/137/1 78/57/1 72/60/1 79/138/1
f 61/139/1 85/137/1 79/138/1 45/140/1
f 45/141/3 79/136/3 80/130/3 49/142/3
f 67/143/2 83/134/2 81/135/2 47/144/2
f 47/95/4 81/132/4 86/133/4 43/145/4
f 49/142/2 80/130/2 82/131/2 68/146/2
f 68/146/2 82/131/2 83/134/2 67/143/2
f 43/78/1 86/128/1 84/129/1 64/147/1
f 64/147/1 84/129/1 85/137/1 61/139/1
f 87/148/17 88/149/17 90/150/17 89/151/17
f 89/152/18 90/153/18 94/154/18 93/155/18
f 93/155/19 94/154/19 92/156/19 91/157/19
f 91/158/20 92/159/20 88/160/20 87/161/20
f 89/162/7 93/123/7 91/163/7 87/164/7
f 94/165/6 90/166/6 88/164/6 92/167/6
f 107/168/1 108/169/21 98/170/21 97/171/1
f 97/172/22 98/173/23 104/174/23 103/175/22
f 114/176/24 112/177/2 100/178/2 99/179/24
f 99/180/25 100/181/25 96/182/25 95/183/25
f 111/184/1 114/176/24 99/179/24 95/185/1
f 112/186/2 113/187/21 96/188/21 100/189/2
f 103/190/26 104/191/26 106/192/26 105/193/26
f 102/194/27 101/195/28 105/193/28 106/192/27
f 101/196/28 97/172/22 103/175/22 105/197/28
f 98/173/23 102/194/27 106/192/27 104/191/23
f 102/198/2 98/170/21 108/169/21 110/199/2
f 97/200/1 101/201/24 109/202/24 107/203/1
f 101/201/24 102/204/2 110/205/2 109/202/24
f 111/206/1 113/207/21 108/208/21 107/209/1
f 95/210/1 96/188/21 113/187/21 111/211/1
f 110/212/2 108/208/21 113/207/21 112/213/2
f 107/214/1 109/215/24 114/176/24 111/184/1
f 109/215/24 110/216/2 112/177/2 114/176/24
