# Blender 5.1.2
# www.blender.org
mtllib pistol.mtl
o pistol
v -0.027648 -0.003409 0.167169
v -0.027648 -0.145785 0.072984
v -0.027648 -0.047428 0.056935
v 0.042558 -0.003409 0.167169
v 0.042558 -0.145785 0.072984
v 0.042558 -0.047428 0.056935
v -0.027648 0.035717 0.205583
v -0.027648 -0.036035 0.040071
v 0.042558 0.035717 0.205583
v 0.042558 -0.036035 0.040071
v -0.027648 0.057135 0.205583
v -0.027648 0.024151 0.025393
v 0.042558 0.057135 0.205583
v 0.042558 0.024151 0.025393
v -0.027648 0.057135 -0.133126
v -0.027648 0.044985 -0.133126
v 0.042558 0.057135 -0.133126
v 0.042558 0.044985 -0.133126
v -0.027648 -0.145785 0.188848
v -0.027648 -0.105582 0.207391
v 0.042558 -0.105582 0.207391
v 0.042558 -0.145785 0.188848
v -0.027648 0.057135 -0.068415
v 0.042558 0.057135 -0.068415
v -0.027648 0.036458 -0.068246
v 0.042558 0.036458 -0.068246
v 0.007455 0.112806 -0.215516
v 0.007455 0.119635 -0.057304
v 0.020627 0.107349 -0.215516
v 0.027894 0.111169 -0.057304
v 0.026083 0.094177 -0.215516
v 0.036360 0.090729 -0.057304
v 0.020627 0.081006 -0.215516
v 0.027894 0.070291 -0.057304
v 0.007455 0.075549 -0.215516
v 0.007455 0.061825 -0.057304
v -0.005717 0.081006 -0.215516
v -0.012984 0.070291 -0.057304
v -0.011173 0.094177 -0.215516
v -0.021450 0.090729 -0.057304
v -0.005717 0.107349 -0.215516
v -0.012984 0.111169 -0.057304
v 0.007455 0.119635 -0.215516
v 0.027894 0.111169 -0.215516
v 0.036360 0.090729 -0.215516
v 0.027894 0.070291 -0.215516
v 0.007455 0.061825 -0.215516
v -0.012984 0.070291 -0.215516
v -0.021450 0.090729 -0.215516
v -0.012984 0.111169 -0.215516
v -0.010628 -0.036126 0.050320
v -0.010628 0.004119 0.043338
v -0.010628 -0.037331 0.023913
v -0.010628 -0.022478 0.024703
v 0.025538 -0.036126 0.050320
v 0.025538 0.004119 0.043338
v 0.025538 -0.037331 0.023913
v 0.025538 -0.022478 0.024703
v -0.010628 -0.042406 -0.037916
v -0.010628 -0.027552 -0.037126
v 0.025538 -0.042406 -0.037916
v 0.025538 -0.027552 -0.037126
v -0.010628 -0.024362 -0.084159
v -0.010628 -0.015035 -0.070071
v 0.025538 -0.024362 -0.084159
v 0.025538 -0.015035 -0.070071
v -0.010628 0.045629 -0.085031
v -0.010628 0.039289 -0.069863
v 0.025538 0.045629 -0.085031
v 0.025538 0.039289 -0.069863
v -0.004287 0.026205 0.008789
v -0.004287 0.050879 0.011580
v -0.004287 0.021172 -0.013911
v -0.004287 0.042616 -0.025678
v 0.019197 0.026205 0.008789
v 0.019197 0.050879 0.011580
v 0.019197 0.021172 -0.013911
v 0.019197 0.042616 -0.025678
v -0.004287 -0.013594 -0.009674
v -0.004287 -0.009383 -0.021093
v 0.019197 -0.013594 -0.009674
v 0.019197 -0.009383 -0.021093
v -0.033733 -0.134136 0.201145
v -0.033733 -0.007306 0.178663
v -0.033733 -0.134136 0.086724
v -0.033733 -0.023265 0.048399
v 0.048643 -0.134136 0.201145
v 0.048643 -0.007306 0.178663
v 0.048643 -0.134136 0.086724
v 0.048643 -0.023265 0.048399
v -0.033733 -0.106117 0.215516
v -0.033733 -0.036652 0.069928
v 0.048643 -0.036652 0.069928
v 0.048643 -0.106117 0.215516
v -0.033733 0.011768 0.179197
v -0.033733 0.006537 0.043164
v 0.048643 0.011768 0.179197
v 0.048643 0.006537 0.043164
v -0.033733 0.030998 0.139086
v -0.033733 0.034072 0.057094
v 0.048643 0.030998 0.139086
v 0.048643 0.034072 0.057094
v 0.048643 0.006537 0.043164
v 0.048643 0.019751 0.153373
v -0.033733 0.019751 0.153373
v -0.033733 0.006537 0.043164
v -0.033829 -0.124543 0.192550
v -0.033829 -0.105040 0.203480
v -0.033829 -0.124543 0.097537
v -0.033829 -0.030759 0.079267
v 0.048739 -0.124543 0.192550
v 0.048739 -0.105040 0.203480
v 0.048739 -0.124543 0.097537
v 0.048739 -0.030759 0.079267
v -0.033829 -0.021355 0.125465
v 0.048739 -0.021355 0.125465
v -0.033829 -0.006315 0.165693
v -0.033829 0.003771 0.153712
v 0.048739 0.003771 0.153712
v 0.048739 -0.006315 0.165693
v -0.033998 -0.067338 0.112398
v 0.048908 -0.067338 0.112398
v -0.033998 -0.081699 0.117064
v 0.048908 -0.081699 0.117064
v -0.033998 -0.090575 0.129281
v 0.048908 -0.090575 0.129281
v -0.033998 -0.090575 0.144381
v 0.048908 -0.090575 0.144381
v -0.033998 -0.081699 0.156596
v 0.048908 -0.081699 0.156596
v -0.033998 -0.067338 0.161263
v 0.048908 -0.067338 0.161263
v -0.033998 -0.052977 0.156596
v 0.048908 -0.052977 0.156596
v -0.033998 -0.044101 0.144381
v 0.048908 -0.044101 0.144381
v -0.033998 -0.044101 0.129281
v 0.048908 -0.044101 0.129281
v -0.033998 -0.052977 0.117064
v 0.048908 -0.052977 0.117064
v -0.034289 -0.059690 0.118606
v 0.049199 -0.059690 0.118606
v -0.034289 -0.069152 0.129122
v 0.049199 -0.069152 0.129122
v -0.034289 -0.082308 0.123925
v 0.049199 -0.082308 0.123925
v -0.034289 -0.075230 0.136173
v 0.049199 -0.075230 0.136173
v -0.034289 -0.084237 0.147080
v 0.049199 -0.084237 0.147080
v -0.034289 -0.070402 0.144132
v 0.049199 -0.070402 0.144132
v -0.034289 -0.062813 0.156069
v 0.049199 -0.062813 0.156069
v -0.034289 -0.061340 0.142001
v 0.049199 -0.061340 0.142001
v -0.034289 -0.047641 0.138471
v 0.049199 -0.047641 0.138471
v -0.034289 -0.060566 0.132723
v 0.049199 -0.060566 0.132723
v -0.029679 -0.130774 0.186347
v -0.029679 -0.095402 0.206769
v -0.029679 -0.119782 0.167307
v -0.029679 -0.084409 0.187729
v -0.049478 -0.127080 0.188430
v -0.049478 -0.098922 0.204686
v -0.049478 -0.116088 0.169390
v -0.049478 -0.087929 0.185648
v -0.034272 0.050585 0.211126
v 0.013485 0.102937 0.048559
v -0.014789 0.128495 0.173550
v -0.017080 0.050585 -0.203076
v 0.013485 0.102937 -0.030776
v -0.014789 0.128495 -0.203076
v 0.049182 0.050585 0.211126
v 0.029699 0.128495 0.173550
v 0.031990 0.050585 -0.203076
v 0.029699 0.128495 -0.203076
v -0.034272 0.102515 0.182206
v -0.034272 0.102515 -0.203076
v 0.049182 0.102515 -0.203076
v 0.049182 0.102515 0.182206
v -0.034272 0.050585 -0.108530
v 0.049182 0.050585 -0.108530
v 0.031990 0.050585 -0.108530
v -0.017080 0.050585 -0.108530
v -0.034272 0.076625 -0.203076
v 0.049182 0.076625 -0.203076
v 0.049182 0.076625 0.211126
v -0.034272 0.076625 0.211126
v -0.034272 0.076625 -0.129213
v 0.049182 0.076625 -0.129213
v 0.048865 0.102937 0.048559
v 0.048865 0.102937 -0.030776
v 0.029699 0.128495 0.048559
v 0.029699 0.128495 -0.030776
v 0.013485 0.128495 -0.030776
v 0.013485 0.128495 0.048559
v -0.013871 0.112700 0.159336
v -0.013871 0.135877 0.159336
v -0.013871 0.112700 0.136146
v -0.013871 0.135877 0.136146
v 0.028781 0.112700 0.159336
v 0.028781 0.135877 0.159336
v 0.028781 0.112700 0.136146
v 0.028781 0.135877 0.136146
v -0.013871 0.135877 0.152180
v -0.013871 0.135877 0.143300
v 0.028781 0.135877 0.143300
v 0.028781 0.135877 0.152180
v -0.011321 0.145785 0.152180
v -0.011321 0.145785 0.143300
v 0.026231 0.145785 0.143300
v 0.026231 0.145785 0.152180
v 0.000346 0.135877 0.143300
v 0.014564 0.135877 0.143300
v 0.000346 0.135877 0.152180
v 0.014564 0.135877 0.152180
v 0.002672 0.145785 0.143300
v 0.012238 0.145785 0.143300
v 0.002672 0.145785 0.152180
v 0.012238 0.145785 0.152180
v 0.002672 0.139096 0.143300
v 0.012238 0.139096 0.143300
v 0.002672 0.139096 0.152180
v 0.012238 0.139096 0.152180
v 0.003823 0.127425 -0.172038
v 0.003823 0.145785 -0.175134
v 0.003823 0.127425 -0.198939
v 0.003823 0.140866 -0.198939
v 0.011087 0.127425 -0.172038
v 0.011087 0.145785 -0.175134
v 0.011087 0.127425 -0.198939
v 0.011087 0.140866 -0.198939
v -0.008025 0.105846 0.166000
v 0.022935 0.105846 0.166000
v -0.008025 0.089488 0.172774
v 0.022935 0.089488 0.172774
v -0.008025 0.082713 0.189132
v 0.022935 0.082713 0.189132
v -0.008025 0.089488 0.205489
v 0.022935 0.089488 0.205489
v -0.008025 0.105846 0.212265
v 0.022935 0.105846 0.212265
v -0.008025 0.122202 0.205489
v 0.022935 0.122202 0.205489
v -0.008025 0.128978 0.189132
v 0.022935 0.128978 0.189132
v -0.008025 0.122202 0.172774
v 0.022935 0.122202 0.172774
v -0.034568 0.053475 0.108708
v -0.034568 0.097600 0.103292
v -0.034568 0.053475 0.023385
v -0.034568 0.097600 0.017970
v 0.049478 0.053475 0.165014
v 0.049478 0.097600 0.159599
v 0.049478 0.053475 0.079691
v 0.049478 0.097600 0.074276
v -0.034568 0.053475 0.032866
v -0.034568 0.053475 0.042346
v -0.034568 0.053475 0.051826
v -0.034568 0.053475 0.061307
v -0.034568 0.053475 0.070787
v -0.034568 0.053475 0.080267
v -0.034568 0.053475 0.089747
v -0.034568 0.053475 0.099228
v -0.034568 0.097600 0.093812
v -0.034568 0.097600 0.084332
v -0.034568 0.097600 0.074851
v -0.034568 0.097600 0.065370
v -0.034568 0.097600 0.055891
v -0.034568 0.097600 0.046411
v -0.034568 0.097600 0.036930
v -0.034568 0.097600 0.027450
v 0.049478 0.053475 0.155533
v 0.049478 0.053475 0.146054
v 0.049478 0.053475 0.136573
v 0.049478 0.053475 0.127092
v 0.049478 0.053475 0.117613
v 0.049478 0.053475 0.108133
v 0.049478 0.053475 0.098652
v 0.049478 0.053475 0.089172
v 0.049478 0.097600 0.083756
v 0.049478 0.097600 0.093236
v 0.049478 0.097600 0.102717
v 0.049478 0.097600 0.112197
v 0.049478 0.097600 0.121678
v 0.049478 0.097600 0.131158
v 0.049478 0.097600 0.140637
v 0.049478 0.097600 0.150118
v 0.006463 0.125380 0.056598
v 0.026977 0.125380 0.056598
v 0.006463 0.125380 -0.035728
v 0.026977 0.125380 -0.035728
v 0.044909 0.084209 0.056598
v 0.044909 0.084209 -0.035728
v 0.044909 0.102540 0.056598
v 0.033139 0.117739 0.056598
v 0.033139 0.117739 -0.035728
v 0.044909 0.102540 -0.035728
v -0.039445 0.071324 0.164998
v -0.039445 0.096508 0.164998
v -0.046719 0.083736 0.119402
v -0.046719 0.092089 0.119402
v -0.031253 0.071324 0.164998
v -0.031253 0.096508 0.164998
v -0.031253 0.079317 0.119402
v -0.031253 0.096508 0.119402
v -0.039445 0.069234 0.142200
v -0.039445 0.096508 0.142200
v -0.031253 0.069234 0.142200
v -0.031253 0.096508 0.142200
vn -0.0000 -0.1610 -0.9869
vn -0.0000 -0.8286 -0.5598
vn -0.0000 -0.1993 0.9799
vn -0.0000 -0.7006 0.7136
vn -0.0000 -0.1992 0.9799
vn -0.0000 -0.0000 1.0000
vn -0.0000 -0.2369 -0.9715
vn -0.0000 -0.0000 -1.0000
vn -0.0000 -0.4188 0.9081
vn -0.0000 -1.0000 -0.0000
vn -0.0000 0.3663 0.9305
vn -0.0000 1.0000 -0.0000
vn -0.0000 -0.9915 -0.1303
vn 0.7347 -0.6726 -0.0884
vn -0.6737 -0.7327 -0.0963
vn -0.7348 -0.6725 -0.0884
vn 1.0000 -0.0000 -0.0000
vn 0.6737 -0.7327 -0.0963
vn -1.0000 -0.0000 -0.0000
vn -0.0000 0.7764 0.6303
vn 0.7071 0.7071 -0.0000
vn 0.5490 0.5490 0.6303
vn 0.7764 -0.0000 0.6302
vn 0.7071 -0.7071 -0.0000
vn 0.5490 -0.5490 0.6303
vn -0.0000 -0.7764 0.6303
vn -0.7071 -0.7071 -0.0000
vn -0.5490 -0.5490 0.6303
vn -0.7764 -0.0000 0.6302
vn -0.5490 0.5490 0.6303
vn -0.7071 0.7071 -0.0000
vn -0.0000 0.8674 -0.4975
vn -0.0000 0.9901 0.1401
vn -0.0000 0.9760 0.2179
vn -0.0000 -0.6262 0.7796
vn -0.0000 -0.9980 0.0637
vn -0.0000 -0.9895 -0.1446
vn -0.0000 -0.5693 -0.8221
vn -0.0000 0.5662 0.8242
vn -0.0000 0.5526 0.8334
vn -0.0000 0.5663 0.8242
vn -0.0000 0.8289 -0.5594
vn -0.0000 0.4126 -0.9109
vn -0.0000 -0.1351 -0.9908
vn -0.0000 0.7434 0.6688
vn -0.0000 -0.2701 0.9628
vn -0.0000 -0.4208 0.9071
vn -0.0000 -0.9382 -0.3460
vn -0.0000 0.2288 -0.9735
vn -0.0000 -0.5599 -0.8286
vn -0.0000 -0.5585 -0.8295
vn -1.0000 0.0002 -0.0000
vn -0.8467 0.5321 -0.0000
vn -0.0000 0.1638 0.9865
vn -0.0000 -0.0584 0.9983
vn -0.0000 -0.7648 -0.6443
vn -0.0000 -0.8534 0.5213
vn -0.0000 -0.8533 0.5214
vn 0.8467 0.5321 -0.0000
vn 0.8519 0.5237 -0.0000
vn 1.0000 0.0002 -0.0000
vn -0.0000 0.5823 0.8130
vn -0.0000 0.6431 -0.7658
vn -0.0000 0.8616 -0.5077
vn -0.0000 0.9386 0.3449
vn -0.0000 0.8854 0.4647
vn -0.0000 0.8854 0.4648
vn -0.0000 0.8519 -0.5237
vn -0.0000 0.5822 0.8130
vn -0.2094 -0.8468 -0.4889
vn -0.2023 0.8481 0.4897
vn -0.0022 -0.5000 0.8660
vn 0.0022 0.5000 -0.8660
vn -0.0000 0.6021 0.7984
vn -0.0000 0.3161 0.9487
vn -0.8000 0.5999 -0.0000
vn -0.9487 0.3162 -0.0000
vn -0.9751 0.2216 -0.0000
vn -0.0000 0.7451 0.6670
vn 0.8000 0.5999 -0.0000
vn 0.8001 0.5999 -0.0000
vn 0.9751 0.2216 -0.0000
vn -0.4738 -0.8806 -0.0000
vn 0.3626 -0.9319 -0.0000
vn -0.3626 -0.9319 -0.0000
vn -0.0000 -0.6219 -0.7831
vn 0.4738 -0.8806 -0.0000
vn 0.8345 -0.5510 -0.0000
vn -0.8345 -0.5510 -0.0000
vn 0.9684 0.2492 -0.0000
vn -0.9684 0.2492 -0.0000
vn -0.0000 0.1662 0.9861
vn -0.0000 0.9793 -0.2024
vn -0.0000 -0.7071 -0.7071
vn -0.0000 -0.7071 0.7071
vn -0.0000 0.7071 0.7071
vn -0.0000 0.7071 -0.7071
vn -0.7309 -0.6825 -0.0000
vn 0.7907 0.6122 -0.0000
vn 0.7784 0.6278 -0.0000
vn -0.9527 -0.0000 0.3040
vn -0.0000 -0.9958 0.0913
vn -0.1832 0.9809 -0.0658
vn -0.1642 -0.8789 -0.4478
vn -0.0000 0.6430 -0.7658
vn 0.9487 0.3162 -0.0000
vn -0.1833 0.9809 -0.0659
vn -0.1642 -0.8790 -0.4477
vt 0.070315 0.890794
vt 0.070335 0.890822
vt 0.070315 0.890822
vt 0.070280 0.890834
vt 0.070275 0.890814
vt 0.070280 0.890814
vt 0.070315 0.890753
vt 0.070335 0.890741
vt 0.070335 0.890753
vt 0.070315 0.890741
vt 0.070335 0.890735
vt 0.070310 0.890734
vt 0.070293 0.890713
vt 0.070310 0.890713
vt 0.070382 0.890728
vt 0.070378 0.890707
vt 0.070382 0.890707
vt 0.070335 0.890782
vt 0.070335 0.890794
vt 0.070356 0.890779
vt 0.070335 0.890813
vt 0.070335 0.890779
vt 0.070315 0.890782
vt 0.070358 0.890707
vt 0.070378 0.890726
vt 0.070358 0.890726
vt 0.070315 0.890754
vt 0.070294 0.890781
vt 0.070294 0.890754
vt 0.070378 0.890805
vt 0.070358 0.890805
vt 0.070315 0.890735
vt 0.070294 0.890735
vt 0.070257 0.890713
vt 0.070254 0.890695
vt 0.070260 0.890694
vt 0.070198 0.890615
vt 0.070195 0.890633
vt 0.070195 0.890615
vt 0.070225 0.890670
vt 0.070212 0.890702
vt 0.070204 0.890661
vt 0.070284 0.890658
vt 0.070263 0.890667
vt 0.070271 0.890626
vt 0.070401 0.890706
vt 0.070395 0.890661
vt 0.070401 0.890660
vt 0.070254 0.890759
vt 0.070248 0.890713
vt 0.070254 0.890713
vt 0.070248 0.890759
vt 0.070242 0.890713
vt 0.070414 0.890768
vt 0.070408 0.890723
vt 0.070414 0.890723
vt 0.070408 0.890769
vt 0.070402 0.890723
vt 0.070407 0.890660
vt 0.070401 0.890615
vt 0.070407 0.890615
vt 0.070224 0.890816
vt 0.070229 0.890811
vt 0.070235 0.890827
vt 0.070395 0.890660
vt 0.070395 0.890615
vt 0.070407 0.890706
vt 0.070407 0.890661
vt 0.008486 0.890673
vt 0.008412 0.890599
vt 0.008664 0.890494
vt 0.070294 0.890774
vt 0.070314 0.890776
vt 0.070314 0.890776
vt 0.070294 0.890774
vt 0.070315 0.890776
vt 0.070315 0.890776
vt 0.070407 0.890642
vt 0.070417 0.890624
vt 0.070417 0.890642
vt 0.070242 0.890759
vt 0.070252 0.890771
vt 0.070242 0.890771
vt 0.070291 0.890804
vt 0.070280 0.890811
vt 0.070280 0.890804
vt 0.070353 0.890841
vt 0.070345 0.890831
vt 0.070353 0.890831
vt 0.070280 0.890787
vt 0.070291 0.890772
vt 0.070291 0.890787
vt 0.070339 0.890755
vt 0.070346 0.890771
vt 0.070342 0.890772
vt 0.070395 0.890722
vt 0.070406 0.890706
vt 0.070406 0.890722
vt 0.070407 0.890624
vt 0.070417 0.890615
vt 0.070357 0.890831
vt 0.070398 0.890744
vt 0.070398 0.890733
vt 0.070402 0.890745
vt 0.070280 0.890832
vt 0.070291 0.890811
vt 0.070291 0.890832
vt 0.049855 0.890715
vt 0.049879 0.890700
vt 0.049872 0.890717
vt 0.050027 0.890504
vt 0.050045 0.890519
vt 0.050027 0.890519
vt 0.049627 0.890704
vt 0.049651 0.890718
vt 0.049634 0.890721
vt 0.049749 0.890708
vt 0.049767 0.890727
vt 0.049749 0.890727
vt 0.049749 0.890757
vt 0.050048 0.890265
vt 0.050031 0.890291
vt 0.050031 0.890265
vt 0.049714 0.890595
vt 0.049723 0.890612
vt 0.049714 0.890612
vt 0.050027 0.890541
vt 0.049871 0.890743
vt 0.049635 0.890746
vt 0.049627 0.890743
vt 0.088194 0.851837
vt 0.088369 0.851231
vt 0.088369 0.851837
vt 0.087169 0.848685
vt 0.087326 0.848848
vt 0.087916 0.850318
vt 0.088522 0.851016
vt 0.087916 0.851016
vt 0.091711 0.850081
vt 0.091106 0.850906
vt 0.091106 0.850081
vt 0.068501 0.849568
vt 0.068817 0.848788
vt 0.069280 0.849423
vt 0.088522 0.851231
vt 0.087916 0.851231
vt 0.091711 0.851610
vt 0.091106 0.851610
vt 0.087879 0.848848
vt 0.088036 0.848685
vt 0.088522 0.850178
vt 0.088522 0.850318
vt 0.091948 0.847486
vt 0.091733 0.846880
vt 0.091948 0.846880
vt 0.089401 0.850398
vt 0.088796 0.850999
vt 0.088796 0.850398
vt 0.088796 0.851114
vt 0.089401 0.850999
vt 0.089401 0.851114
vt 0.091943 0.848707
vt 0.091733 0.848102
vt 0.091943 0.848102
vt 0.087354 0.848685
vt 0.088796 0.851309
vt 0.089401 0.851309
vt 0.069246 0.849284
vt 0.069562 0.850064
vt 0.068784 0.849919
vt 0.088796 0.849449
vt 0.089138 0.849449
vt 0.089072 0.849650
vt 0.089467 0.849483
vt 0.089678 0.849483
vt 0.089743 0.849684
vt 0.068559 0.848808
vt 0.068494 0.848787
vt 0.068494 0.848719
vt 0.067954 0.848828
vt 0.067889 0.848806
vt 0.067889 0.848738
vt 0.030364 0.890021
vt 0.030366 0.890018
vt 0.030366 0.890021
vt 0.030337 0.890049
vt 0.030350 0.890026
vt 0.030362 0.890026
vt 0.030341 0.890048
vt 0.030350 0.890024
vt 0.030329 0.890049
vt 0.030320 0.890049
vt 0.030357 0.890047
vt 0.070145 0.890752
vt 0.070126 0.890706
vt 0.070145 0.890692
vt 0.070319 0.890718
vt 0.070338 0.890449
vt 0.070338 0.890724
vt 0.070571 0.890576
vt 0.070551 0.890636
vt 0.070551 0.890576
vt 0.070356 0.890449
vt 0.070356 0.890502
vt 0.070431 0.890677
vt 0.070478 0.890449
vt 0.070490 0.890677
vt 0.070126 0.890727
vt 0.070126 0.890692
vt 0.070126 0.890740
vt 0.070393 0.890622
vt 0.070393 0.890565
vt 0.070394 0.890470
vt 0.070029 0.890933
vt 0.070064 0.891000
vt 0.070029 0.891000
vt 0.070486 0.890930
vt 0.070486 0.890965
vt 0.070468 0.890977
vt 0.070490 0.890449
vt 0.070510 0.890538
vt 0.070510 0.890595
vt 0.070549 0.890977
vt 0.070549 0.890999
vt 0.070539 0.890992
vt 0.070430 0.890745
vt 0.070412 0.890692
vt 0.070430 0.890677
vt 0.070155 0.891008
vt 0.070167 0.890990
vt 0.070167 0.891008
vt 0.070431 0.890449
vt 0.070431 0.890677
vt 0.070375 0.890450
vt 0.070375 0.890517
vt 0.070126 0.890812
vt 0.070145 0.890752
vt 0.070145 0.890812
vt 0.070398 0.890936
vt 0.070380 0.890993
vt 0.070380 0.890936
vt 0.070265 0.890983
vt 0.070247 0.890995
vt 0.070247 0.890983
vt 0.070144 0.890837
vt 0.070126 0.890825
vt 0.070144 0.890812
vt 0.070155 0.890990
vt 0.070180 0.890933
vt 0.070180 0.890990
vt 0.030725 0.890003
vt 0.030748 0.890046
vt 0.030725 0.890046
vt 0.030374 0.889887
vt 0.030374 0.889902
vt 0.030367 0.889916
vt 0.030530 0.889989
vt 0.030523 0.889975
vt 0.030523 0.889961
vt 0.030342 0.890307
vt 0.030332 0.890318
vt 0.030332 0.890304
vt 0.030204 0.890291
vt 0.030213 0.890291
vt 0.030220 0.890314
vt 0.030532 0.890072
vt 0.030523 0.890058
vt 0.030532 0.890058
vt 0.030758 0.889980
vt 0.030749 0.889992
vt 0.030749 0.889978
vt 0.030737 0.889674
vt 0.030746 0.889664
vt 0.030746 0.889674
vt 0.030213 0.890281
vt 0.030758 0.889966
vt 0.030749 0.889954
vt 0.030758 0.889952
vt 0.030339 0.890295
vt 0.030342 0.890293
vt 0.030532 0.890086
vt 0.030523 0.890072
vt 0.030729 0.889753
vt 0.030752 0.889710
vt 0.030752 0.889753
vt 0.030729 0.889794
vt 0.030752 0.889836
vt 0.030729 0.889836
vt 0.030332 0.890281
vt 0.030342 0.890278
vt 0.030753 0.889697
vt 0.030611 0.890159
vt 0.030602 0.890150
vt 0.030611 0.890150
vt 0.030755 0.889978
vt 0.030524 0.890100
vt 0.030531 0.890109
vt 0.030524 0.890109
vt 0.030531 0.890118
vt 0.030524 0.890118
vt 0.030755 0.889968
vt 0.030749 0.889968
vt 0.030339 0.890304
vt 0.030332 0.890295
vt 0.030725 0.889880
vt 0.030743 0.889904
vt 0.030730 0.889906
vt 0.030523 0.890086
vt 0.030530 0.890100
vt 0.030523 0.890100
vt 0.030714 0.889876
vt 0.030700 0.889903
vt 0.030700 0.889876
vt 0.030523 0.890040
vt 0.030530 0.890058
vt 0.030530 0.889989
vt 0.030523 0.890016
vt 0.030523 0.889989
vt 0.030530 0.890016
vt 0.030530 0.890040
vt 0.091446 0.810311
vt 0.091376 0.810348
vt 0.091376 0.810311
vt 0.091646 0.810273
vt 0.091576 0.810310
vt 0.091576 0.810273
vt 0.091646 0.810310
vt 0.091576 0.810347
vt 0.090783 0.810364
vt 0.090853 0.810328
vt 0.090853 0.810364
vt 0.090783 0.810328
vt 0.090853 0.810290
vt 0.091376 0.810274
vt 0.091306 0.810311
vt 0.091306 0.810274
vt 0.090172 0.810352
vt 0.090144 0.810324
vt 0.090240 0.810284
vt 0.091376 0.810311
vt 0.091306 0.810348
vt 0.091446 0.810274
vt 0.091376 0.810274
vt 0.090316 0.810352
vt 0.090288 0.810284
vt 0.090356 0.810255
vt 0.030537 0.890076
vt 0.030546 0.890119
vt 0.030537 0.890120
vt 0.030400 0.889978
vt 0.030409 0.889935
vt 0.030409 0.889979
vt 0.030400 0.890024
vt 0.030409 0.889981
vt 0.030409 0.890025
vt 0.030400 0.890069
vt 0.030409 0.890026
vt 0.030409 0.890071
vt 0.030400 0.889933
vt 0.030409 0.889890
vt 0.030409 0.889934
vt 0.030400 0.890115
vt 0.030409 0.890072
vt 0.030409 0.890116
vt 0.030169 0.890242
vt 0.030179 0.890286
vt 0.030169 0.890287
vt 0.030546 0.890076
vt 0.030555 0.890119
vt 0.030546 0.890120
vt 0.030546 0.889971
vt 0.030555 0.890014
vt 0.030546 0.890015
vt 0.030169 0.890197
vt 0.030179 0.890240
vt 0.030169 0.890241
vt 0.090125 0.889870
vt 0.090112 0.889928
vt 0.090112 0.889870
vt 0.090494 0.889849
vt 0.090469 0.889906
vt 0.090469 0.889849
vt 0.090474 0.889779
vt 0.090484 0.889836
vt 0.090474 0.889836
vt 0.090469 0.889836
vt 0.090495 0.889779
vt 0.090495 0.889836
vt 0.090495 0.889864
vt 0.090494 0.889857
vt 0.090504 0.889849
vt 0.090502 0.889463
vt 0.090501 0.889475
vt 0.090493 0.889483
vt 0.090379 0.809718
vt 0.090377 0.809722
vt 0.090375 0.809718
vt 0.090419 0.809702
vt 0.090421 0.809700
vt 0.090421 0.809703
vt 0.090423 0.809663
vt 0.090427 0.809659
vt 0.090428 0.809663
vt 0.090364 0.809660
vt 0.090366 0.809664
vt 0.090364 0.809664
vt 0.090427 0.809722
vt 0.090426 0.809726
vt 0.090426 0.809722
vt 0.090427 0.809688
vt 0.090428 0.809685
vt 0.090428 0.809688
vt 0.090428 0.809692
vt 0.090427 0.809718
vt 0.090425 0.809718
vt 0.090426 0.809666
vt 0.090375 0.809715
vt 0.070275 0.890834
vt 0.070293 0.890734
vt 0.070378 0.890728
vt 0.070356 0.890813
vt 0.070315 0.890781
vt 0.070201 0.890633
vt 0.070254 0.890674
vt 0.070242 0.890713
vt 0.070254 0.890708
vt 0.070201 0.890713
vt 0.070195 0.890713
vt 0.070222 0.890665
vt 0.070281 0.890663
vt 0.070254 0.890615
vt 0.070260 0.890615
vt 0.070301 0.890615
vt 0.070313 0.890620
vt 0.070313 0.890653
vt 0.070395 0.890706
vt 0.070402 0.890768
vt 0.070235 0.890811
vt 0.070240 0.890816
vt 0.070240 0.890822
vt 0.070229 0.890827
vt 0.070224 0.890822
vt 0.008412 0.890494
vt 0.008486 0.890420
vt 0.008590 0.890420
vt 0.008664 0.890598
vt 0.008590 0.890673
vt 0.070294 0.890774
vt 0.070314 0.890777
vt 0.070314 0.890777
vt 0.070314 0.890776
vt 0.070314 0.890776
vt 0.070294 0.890773
vt 0.070294 0.890773
vt 0.070294 0.890774
vt 0.070294 0.890773
vt 0.070294 0.890773
vt 0.070252 0.890759
vt 0.070345 0.890841
vt 0.070280 0.890772
vt 0.070335 0.890756
vt 0.070336 0.890741
vt 0.070340 0.890744
vt 0.070355 0.890735
vt 0.070355 0.890740
vt 0.070345 0.890779
vt 0.070355 0.890774
vt 0.070357 0.890841
vt 0.070383 0.890729
vt 0.070382 0.890724
vt 0.070401 0.890730
vt 0.070395 0.890761
vt 0.070393 0.890769
vt 0.070391 0.890760
vt 0.070382 0.890763
vt 0.049851 0.890697
vt 0.050045 0.890504
vt 0.049655 0.890701
vt 0.049767 0.890708
vt 0.049767 0.890757
vt 0.050048 0.890291
vt 0.049723 0.890595
vt 0.050045 0.890541
vt 0.049879 0.890739
vt 0.088194 0.851231
vt 0.086405 0.849239
vt 0.086359 0.849106
vt 0.086524 0.848994
vt 0.086600 0.848884
vt 0.087232 0.849209
vt 0.086521 0.850178
vt 0.086359 0.850012
vt 0.087325 0.849931
vt 0.087354 0.849069
vt 0.091711 0.850906
vt 0.068627 0.849673
vt 0.068501 0.848791
vt 0.068557 0.848690
vt 0.069159 0.848731
vt 0.088605 0.848884
vt 0.087973 0.849209
vt 0.088681 0.848994
vt 0.088845 0.849106
vt 0.088800 0.849239
vt 0.088845 0.850012
vt 0.087880 0.849931
vt 0.088684 0.850178
vt 0.087851 0.849069
vt 0.087916 0.850178
vt 0.091733 0.847486
vt 0.091733 0.848707
vt 0.068905 0.849228
vt 0.069506 0.849186
vt 0.069562 0.849287
vt 0.069436 0.850169
vt 0.088967 0.849684
vt 0.088861 0.849650
vt 0.088796 0.849560
vt 0.088861 0.849359
vt 0.088967 0.849325
vt 0.089072 0.849359
vt 0.089138 0.849560
vt 0.089678 0.849774
vt 0.089572 0.849808
vt 0.089467 0.849774
vt 0.089402 0.849684
vt 0.089402 0.849573
vt 0.089572 0.849449
vt 0.089743 0.849573
vt 0.068496 0.848615
vt 0.068559 0.848698
vt 0.068659 0.848668
vt 0.068600 0.848753
vt 0.068659 0.848839
vt 0.068496 0.848891
vt 0.068396 0.848753
vt 0.067891 0.848634
vt 0.067954 0.848717
vt 0.068053 0.848687
vt 0.067994 0.848772
vt 0.068053 0.848858
vt 0.067891 0.848910
vt 0.067791 0.848772
vt 0.030364 0.890018
vt 0.030325 0.890049
vt 0.030362 0.890024
vt 0.070126 0.890738
vt 0.070319 0.890450
vt 0.070571 0.890635
vt 0.070375 0.890517
vt 0.070375 0.890745
vt 0.070356 0.890745
vt 0.070375 0.890565
vt 0.070375 0.890476
vt 0.070394 0.890745
vt 0.070375 0.890622
vt 0.070064 0.890933
vt 0.070449 0.890977
vt 0.070449 0.890917
vt 0.070431 0.890963
vt 0.070431 0.890931
vt 0.070468 0.890917
vt 0.070522 0.890595
vt 0.070522 0.890718
vt 0.070490 0.890718
vt 0.070522 0.890449
vt 0.070522 0.890538
vt 0.070412 0.890745
vt 0.070412 0.890449
vt 0.070126 0.890752
vt 0.070398 0.890993
vt 0.070265 0.891008
vt 0.070126 0.890837
vt 0.070155 0.890933
vt 0.030748 0.890003
vt 0.030374 0.889916
vt 0.030367 0.889873
vt 0.030374 0.889873
vt 0.030523 0.889947
vt 0.030530 0.889947
vt 0.030342 0.890321
vt 0.030220 0.890291
vt 0.030197 0.890314
vt 0.030197 0.890291
vt 0.030758 0.889994
vt 0.030737 0.889664
vt 0.030204 0.890281
vt 0.030729 0.889710
vt 0.030752 0.889794
vt 0.030753 0.889674
vt 0.030730 0.889697
vt 0.030730 0.889674
vt 0.030602 0.890159
vt 0.030531 0.890100
vt 0.030744 0.889880
vt 0.030530 0.890086
vt 0.030719 0.889900
vt 0.091446 0.810348
vt 0.091646 0.810347
vt 0.090783 0.810290
vt 0.090144 0.810284
vt 0.090172 0.810255
vt 0.090212 0.810255
vt 0.090240 0.810324
vt 0.090212 0.810352
vt 0.091376 0.810348
vt 0.090385 0.810284
vt 0.090385 0.810324
vt 0.090356 0.810352
vt 0.090288 0.810324
vt 0.090316 0.810255
vt 0.030546 0.890075
vt 0.030400 0.889934
vt 0.030400 0.889979
vt 0.030400 0.890025
vt 0.030400 0.889888
vt 0.030400 0.890071
vt 0.030179 0.890241
vt 0.030555 0.890075
vt 0.030555 0.889969
vt 0.030179 0.890196
vt 0.090125 0.889928
vt 0.090494 0.889907
vt 0.090484 0.889779
vt 0.090469 0.889779
vt 0.090504 0.889884
vt 0.090496 0.889876
vt 0.090493 0.889448
vt 0.090503 0.889457
vt 0.090379 0.809722
vt 0.090419 0.809700
vt 0.090423 0.809659
vt 0.090366 0.809660
vt 0.090427 0.809726
vt 0.090427 0.809685
vt 0.090426 0.809692
vt 0.090423 0.809666
vt 0.090379 0.809715
s 1
usemtl material0
f 3/1/1 5/2/1 2/3/1
f 3/4/2 10/5/2 6/6/2
f 4/7/3 7/8/4 1/9/5
f 9/10/6 11/11/6 7/8/6
f 8/12/7 14/13/7 10/14/7
f 16/15/8 17/16/8 18/17/8
f 22/1/9 20/18/9 19/19/9
f 5/20/10 19/21/10 2/22/10
f 4/7/3 20/18/11 21/23/11
f 17/24/12 23/25/12 24/26/12
f 26/27/13 12/28/13 25/29/13
f 24/26/12 11/30/12 13/31/12
f 18/32/14 25/29/15 16/33/16
f 18/34/14 24/35/17 26/36/18
f 16/37/16 23/38/19 15/39/19
f 3/40/19 1/41/19 12/42/19
f 6/43/17 14/44/17 4/45/17
f 28/46/20 44/47/21 43/48/12
f 30/49/22 45/50/17 44/51/21
f 32/52/23 46/53/24 45/50/17
f 34/54/25 47/55/10 46/56/24
f 36/57/26 48/58/27 47/55/10
f 38/59/28 49/60/19 48/61/27
f 34/62/25 32/63/23 40/64/29
f 49/60/19 42/65/30 50/66/31
f 42/67/30 43/48/12 50/68/31
f 39/69/8 41/70/8 33/71/8
f 41/72/8 50/73/8 43/74/8
f 35/75/8 46/76/8 47/77/8
f 58/78/32 60/79/33 54/80/32
f 56/81/34 51/82/35 55/83/35
f 57/84/36 51/85/35 53/86/36
f 54/87/32 56/88/34 58/89/32
f 59/90/37 65/91/38 61/92/37
f 62/93/17 58/94/17 57/95/17
f 53/86/36 61/92/37 57/84/36
f 66/96/39 68/97/40 64/98/41
f 62/99/33 64/100/41 60/79/33
f 68/101/40 69/87/42 67/89/42
f 60/102/19 64/103/19 59/104/19
f 63/105/38 69/106/42 65/107/38
f 71/108/19 74/109/19 73/110/19
f 74/111/43 77/112/44 73/113/44
f 78/114/17 75/115/17 77/116/17
f 76/117/45 71/118/46 75/119/46
f 71/118/46 81/120/47 75/119/46
f 74/121/43 76/122/45 78/123/43
f 82/124/48 79/125/48 80/126/48
f 77/112/44 80/127/49 73/113/44
f 73/110/19 79/128/19 71/108/19
f 77/116/17 81/129/17 82/130/17
f 86/131/50 93/132/51 92/133/51
f 100/134/52 106/135/12 96/135/53
f 88/136/54 91/137/55 94/138/55
f 89/139/56 83/140/57 85/141/56
f 108/142/19 115/143/19 109/144/19
f 94/138/55 83/145/57 87/146/58
f 92/140/51 89/147/56 85/148/56
f 98/149/59 103/149/60 102/150/61
f 88/136/54 95/151/62 84/152/54
f 86/153/50 98/154/63 90/155/50
f 100/156/64 101/157/65 102/158/64
f 104/159/66 99/160/65 105/161/67
f 106/162/68 102/163/64 103/164/68
f 98/165/63 106/165/68 103/165/68
f 97/166/69 105/161/67 95/167/62
f 116/168/17 112/169/17 113/170/17
f 138/171/17 130/172/17 126/173/17
f 131/174/19 135/175/19 139/176/19
f 152/177/17 148/178/17 144/179/17
f 151/180/19 155/181/19 159/182/19
f 163/183/17 162/184/17 161/185/17
f 163/186/70 165/187/70 167/188/70
f 164/189/71 166/190/71 162/191/71
f 166/190/19 167/188/19 165/187/19
f 162/191/72 165/187/72 161/192/72
f 167/188/73 164/193/73 163/186/73
f 182/194/74 171/195/75 179/196/74
f 171/197/76 180/198/77 179/199/78
f 182/200/74 190/201/79 189/202/79
f 180/198/77 187/203/19 191/204/19
f 169/205/10 185/206/10 175/207/10
f 186/208/12 185/209/12 183/210/12
f 194/211/80 193/212/81 182/213/82
f 172/214/83 185/215/84 186/216/85
f 177/217/8 172/218/8 187/219/8
f 171/220/12 198/221/12 197/222/12
f 191/223/86 186/224/86 183/225/86
f 177/226/87 192/227/88 185/228/84
f 185/229/86 192/230/86 184/231/86
f 175/232/17 184/233/17 182/213/82
f 191/204/89 172/234/83 186/235/85
f 189/236/6 169/237/6 175/238/6
f 170/239/17 197/240/17 198/241/17
f 173/242/6 196/243/6 197/244/6
f 170/245/8 195/246/8 193/247/8
f 173/248/12 193/249/12 194/250/12
f 206/251/8 201/252/8 202/253/8
f 218/254/12 217/255/12 200/256/12
f 202/257/12 215/258/12 216/259/12
f 215/260/8 212/261/8 219/262/8
f 207/263/19 208/264/19 201/265/19
f 212/266/12 221/267/12 219/268/12
f 218/269/6 214/270/6 222/271/6
f 209/272/90 214/273/90 210/274/90
f 207/263/91 212/275/91 208/264/91
f 217/276/6 211/277/6 207/278/6
f 215/260/8 224/279/8 216/280/8
f 220/281/12 214/282/12 213/266/12
f 203/283/10 201/284/10 205/285/10
f 200/286/6 203/287/6 204/288/6
f 216/280/8 213/289/8 209/290/8
f 209/272/17 210/274/17 203/291/17
f 223/292/12 226/293/12 224/294/12
f 226/295/6 217/276/6 218/269/6
f 220/296/19 226/297/19 222/298/19
f 221/298/17 223/299/17 219/300/17
f 226/295/6 218/269/6 222/271/6
f 225/301/6 221/302/6 217/276/6
f 219/262/8 223/303/8 215/260/8
f 220/304/8 216/280/8 224/279/8
f 227/305/19 230/306/19 229/307/19
f 230/308/8 233/309/8 229/310/8
f 234/311/17 231/312/17 233/313/17
f 232/314/92 227/315/92 231/267/92
f 233/316/10 227/317/10 229/318/10
f 230/314/93 232/319/93 234/320/93
f 236/321/8 237/322/94 235/323/8
f 238/324/94 239/325/10 237/326/94
f 240/327/10 241/328/95 239/325/10
f 242/329/95 243/330/6 241/331/95
f 244/332/6 245/333/96 243/330/6
f 246/334/96 247/335/12 245/336/96
f 242/337/17 240/338/17 248/339/17
f 248/340/12 249/341/97 247/335/12
f 250/342/97 235/323/8 249/343/97
f 241/344/19 245/345/19 249/346/19
f 274/347/19 253/348/19 259/349/19
f 275/350/17 256/351/17 255/352/17
f 257/353/17 283/354/17 282/355/17
f 281/356/17 285/357/17 280/358/17
f 279/359/17 287/360/17 278/361/17
f 277/362/17 289/363/17 276/364/17
f 252/365/19 266/366/19 251/367/19
f 268/368/19 264/369/19 265/370/19
f 270/371/19 262/372/19 263/373/19
f 272/374/19 260/375/19 261/376/19
f 292/377/12 293/378/12 291/379/12
f 296/380/98 291/381/98 293/382/98
f 298/383/99 300/384/99 299/385/99
f 294/386/100 298/383/100 299/385/100
f 300/384/17 295/387/17 296/388/17
f 298/389/6 292/390/6 291/391/6
f 299/392/8 300/393/8 296/394/8
f 310/395/101 303/396/101 309/397/101
f 303/398/8 308/399/8 307/400/8
f 312/401/17 305/402/17 311/403/17
f 306/404/6 301/405/6 305/406/6
f 311/407/102 301/408/102 309/409/102
f 310/410/12 306/411/12 312/412/12
f 308/413/103 310/410/103 312/412/103
f 307/414/104 309/409/104 303/415/104
f 307/416/17 312/401/17 311/403/17
f 301/417/19 310/395/19 309/397/19
f 3/1/1 6/19/1 5/2/1
f 3/4/2 8/418/2 10/5/2
f 4/7/3 9/10/4 7/8/4
f 9/10/6 13/32/6 11/11/6
f 8/12/7 12/419/7 14/13/7
f 16/15/8 15/420/8 17/16/8
f 22/1/9 21/23/9 20/18/9
f 5/20/10 22/421/10 19/21/10
f 4/7/3 1/9/5 20/18/11
f 17/24/12 15/16/12 23/25/12
f 26/27/13 14/422/13 12/28/13
f 24/26/12 23/25/12 11/30/12
f 18/32/14 26/27/18 25/29/15
f 18/34/14 17/51/17 24/35/17
f 16/37/16 25/423/15 23/38/19
f 3/40/19 2/424/19 20/425/19
f 2/424/19 19/426/19 20/425/19
f 20/425/19 1/41/19 3/40/19
f 1/41/19 7/427/19 11/428/19
f 11/428/19 23/38/19 12/42/19
f 23/38/19 25/423/19 12/42/19
f 12/42/19 8/429/19 3/40/19
f 1/41/19 11/428/19 12/42/19
f 6/43/17 10/430/17 14/44/17
f 14/44/17 26/36/17 24/35/17
f 24/35/17 13/431/17 14/44/17
f 13/431/17 9/432/17 4/45/17
f 14/44/17 13/431/17 4/45/17
f 4/45/17 21/433/17 6/43/17
f 21/433/17 22/434/17 5/435/17
f 21/433/17 5/435/17 6/43/17
f 28/46/20 30/436/22 44/47/21
f 30/49/22 32/52/23 45/50/17
f 32/52/23 34/81/25 46/53/24
f 34/54/25 36/57/26 47/55/10
f 36/57/26 38/437/28 48/58/27
f 38/59/28 40/48/29 49/60/19
f 32/63/23 30/438/22 40/64/29
f 30/438/22 28/439/20 40/64/29
f 28/439/20 42/440/30 40/64/29
f 40/64/29 38/441/28 36/442/26
f 36/442/26 34/62/25 40/64/29
f 49/60/19 40/48/29 42/65/30
f 42/67/30 28/46/20 43/48/12
f 41/70/8 27/443/8 33/71/8
f 27/443/8 29/444/8 33/71/8
f 29/444/8 31/445/8 33/71/8
f 33/71/8 35/446/8 37/447/8
f 37/447/8 39/69/8 33/71/8
f 37/448/8 35/75/8 48/449/8
f 35/75/8 47/77/8 48/449/8
f 48/449/8 49/450/8 37/448/8
f 44/451/8 45/452/8 31/453/8
f 45/452/8 46/76/8 33/454/8
f 31/453/8 45/452/8 33/454/8
f 39/455/8 37/448/8 49/450/8
f 44/451/8 31/453/8 29/456/8
f 44/451/8 29/456/8 43/74/8
f 29/456/8 27/457/8 43/74/8
f 39/455/8 49/450/8 50/73/8
f 41/72/8 39/455/8 50/73/8
f 27/457/8 41/72/8 43/74/8
f 35/75/8 33/454/8 46/76/8
f 58/78/32 62/99/33 60/79/33
f 56/81/34 52/458/34 51/82/35
f 57/84/36 55/106/35 51/85/35
f 54/87/32 52/459/34 56/88/34
f 59/90/37 63/460/38 65/91/38
f 57/95/17 61/461/17 62/93/17
f 61/461/17 65/462/17 66/463/17
f 62/93/17 61/461/17 66/463/17
f 65/462/17 69/464/17 66/463/17
f 69/464/17 70/465/17 66/463/17
f 55/466/17 57/95/17 58/94/17
f 58/94/17 56/467/17 55/466/17
f 53/86/36 59/90/37 61/92/37
f 66/96/39 70/436/40 68/97/40
f 62/99/33 66/61/39 64/100/41
f 68/101/40 70/468/40 69/87/42
f 64/103/19 68/469/19 67/470/19
f 63/471/19 59/104/19 64/103/19
f 59/104/19 53/472/19 60/102/19
f 53/472/19 51/473/19 54/474/19
f 51/473/19 52/475/19 54/474/19
f 64/103/19 67/470/19 63/471/19
f 53/472/19 54/474/19 60/102/19
f 63/105/38 67/85/42 69/106/42
f 71/108/19 72/476/19 74/109/19
f 74/111/43 78/477/43 77/112/44
f 78/114/17 76/478/17 75/115/17
f 76/117/45 72/479/45 71/118/46
f 71/118/46 79/480/47 81/120/47
f 74/121/43 72/481/45 76/122/45
f 82/124/48 81/482/48 79/125/48
f 77/112/44 82/483/49 80/127/49
f 73/110/19 80/484/19 79/128/19
f 77/116/17 75/115/17 81/129/17
f 86/131/50 90/485/50 93/132/51
f 84/486/19 95/487/19 105/488/19
f 105/488/19 99/489/19 92/490/19
f 99/489/19 100/134/52 92/490/19
f 84/486/19 105/488/19 92/490/19
f 83/491/19 91/492/19 85/493/19
f 91/492/19 84/486/19 85/493/19
f 92/490/19 85/493/19 84/486/19
f 86/494/19 92/490/19 96/135/53
f 92/490/19 100/134/52 96/135/53
f 88/136/54 84/152/54 91/137/55
f 89/139/56 87/495/58 83/140/57
f 107/496/19 108/142/19 109/144/19
f 108/142/19 117/497/19 115/143/19
f 117/497/19 118/498/19 115/143/19
f 115/143/19 110/499/19 109/144/19
f 94/138/55 91/137/55 83/145/57
f 92/140/51 93/495/51 89/147/56
f 102/150/61 101/500/17 93/501/17
f 101/500/17 104/502/17 93/501/17
f 104/502/17 97/503/17 88/504/17
f 88/504/17 94/505/17 89/506/17
f 94/505/17 87/507/17 89/506/17
f 89/506/17 93/501/17 88/504/17
f 104/502/17 88/504/17 93/501/17
f 102/150/61 93/501/17 98/149/59
f 93/501/17 90/508/17 98/149/59
f 88/136/54 97/509/69 95/151/62
f 86/153/50 96/510/105 98/154/63
f 100/156/64 99/160/65 101/157/65
f 104/159/66 101/157/65 99/160/65
f 106/162/68 100/511/64 102/163/64
f 98/165/63 96/165/105 106/165/68
f 97/166/69 104/159/66 105/161/67
f 113/170/17 114/512/17 116/168/17
f 116/168/17 119/513/17 120/514/17
f 120/514/17 112/169/17 116/168/17
f 112/169/17 111/515/17 113/170/17
f 126/173/17 124/516/17 122/517/17
f 122/517/17 140/518/17 126/173/17
f 140/518/17 138/171/17 126/173/17
f 138/171/17 136/519/17 130/172/17
f 136/519/17 134/520/17 130/172/17
f 134/520/17 132/521/17 130/172/17
f 130/172/17 128/522/17 126/173/17
f 139/176/19 121/523/19 123/524/19
f 123/524/19 125/525/19 127/526/19
f 127/526/19 129/527/19 131/174/19
f 131/174/19 133/528/19 135/175/19
f 135/175/19 137/529/19 139/176/19
f 139/176/19 123/524/19 127/526/19
f 127/526/19 131/174/19 139/176/19
f 144/179/17 142/530/17 160/531/17
f 160/531/17 158/532/17 156/533/17
f 156/533/17 154/534/17 152/177/17
f 152/177/17 150/535/17 148/178/17
f 148/178/17 146/536/17 144/179/17
f 144/179/17 160/531/17 156/533/17
f 156/533/17 152/177/17 144/179/17
f 159/182/19 141/537/19 143/538/19
f 143/538/19 145/539/19 147/540/19
f 147/540/19 149/541/19 151/180/19
f 151/180/19 153/542/19 155/181/19
f 155/181/19 157/543/19 159/182/19
f 159/182/19 143/538/19 147/540/19
f 147/540/19 151/180/19 159/182/19
f 163/183/17 164/544/17 162/184/17
f 163/186/70 161/545/70 165/187/70
f 164/189/71 168/546/71 166/190/71
f 166/190/19 168/546/19 167/188/19
f 162/191/72 166/190/72 165/187/72
f 167/188/73 168/546/73 164/193/73
f 182/194/74 176/547/75 171/195/75
f 171/197/76 174/548/76 180/198/77
f 182/200/74 179/549/74 190/201/79
f 191/204/19 183/550/19 179/199/78
f 183/550/19 169/551/19 179/199/78
f 169/551/19 190/552/19 179/199/78
f 179/199/78 180/198/77 191/204/19
f 183/232/10 185/206/10 169/205/10
f 185/206/10 184/220/10 175/207/10
f 195/553/80 176/554/80 193/212/81
f 176/554/80 182/213/82 193/212/81
f 181/555/106 178/551/80 194/211/80
f 178/551/80 196/556/80 194/211/80
f 181/555/106 194/211/80 182/213/82
f 172/214/83 177/557/87 185/215/84
f 187/219/8 180/558/8 181/559/8
f 180/558/8 174/560/8 181/559/8
f 174/560/8 178/561/8 181/559/8
f 181/559/8 188/562/8 187/219/8
f 188/562/8 177/217/8 187/219/8
f 197/222/12 196/563/12 178/564/12
f 178/564/12 174/565/12 197/222/12
f 174/565/12 171/220/12 197/222/12
f 171/220/12 176/566/12 198/221/12
f 176/566/12 195/567/12 198/221/12
f 177/226/87 188/568/88 192/227/88
f 192/227/17 188/568/17 181/555/106
f 181/555/106 182/213/82 192/227/17
f 182/213/82 189/569/17 175/232/17
f 192/227/17 182/213/82 184/233/17
f 191/204/89 187/203/89 172/234/83
f 189/236/6 190/570/6 169/237/6
f 170/239/17 173/571/17 197/240/17
f 173/242/6 194/572/6 196/243/6
f 170/245/8 198/573/8 195/246/8
f 173/248/12 170/574/12 193/249/12
f 206/251/8 205/575/8 201/252/8
f 217/255/12 207/576/12 200/256/12
f 200/256/12 204/577/12 218/254/12
f 204/577/12 210/578/12 218/254/12
f 209/579/12 206/580/12 216/259/12
f 206/580/12 202/257/12 216/259/12
f 202/257/12 208/318/12 215/258/12
f 215/260/8 208/581/8 212/261/8
f 208/264/19 202/582/19 201/265/19
f 201/265/19 199/583/19 207/263/19
f 199/583/19 200/584/19 207/263/19
f 212/266/12 211/282/12 221/267/12
f 218/269/6 210/585/6 214/270/6
f 209/272/90 213/586/90 214/273/90
f 207/263/91 211/587/91 212/275/91
f 217/276/6 221/302/6 211/277/6
f 215/260/8 223/303/8 224/279/8
f 220/281/12 222/308/12 214/282/12
f 203/283/10 199/588/10 201/284/10
f 200/286/6 199/589/6 203/287/6
f 216/280/8 220/304/8 213/289/8
f 210/274/17 204/590/17 203/291/17
f 203/291/17 205/591/17 209/272/17
f 205/591/17 206/592/17 209/272/17
f 223/292/12 225/593/12 226/293/12
f 226/295/6 225/301/6 217/276/6
f 220/296/19 224/594/19 226/297/19
f 221/298/17 225/297/17 223/299/17
f 227/305/19 228/595/19 230/306/19
f 230/308/8 234/596/8 233/309/8
f 234/311/17 232/597/17 231/312/17
f 232/314/92 228/320/92 227/315/92
f 233/316/10 231/319/10 227/317/10
f 230/314/93 228/317/93 232/319/93
f 236/321/8 238/598/94 237/322/94
f 238/324/94 240/327/10 239/325/10
f 240/327/10 242/599/95 241/328/95
f 242/329/95 244/332/6 243/330/6
f 244/332/6 246/600/96 245/333/96
f 246/334/96 248/340/12 247/335/12
f 240/338/17 238/601/17 236/602/17
f 236/602/17 250/603/17 240/338/17
f 250/603/17 248/339/17 240/338/17
f 248/339/17 246/604/17 244/605/17
f 244/605/17 242/337/17 248/339/17
f 248/340/12 250/606/97 249/341/97
f 250/342/97 236/321/8 235/323/8
f 249/346/19 235/607/19 237/608/19
f 237/608/19 239/609/19 241/344/19
f 241/344/19 243/610/19 245/345/19
f 245/345/19 247/611/19 249/346/19
f 249/346/19 237/608/19 241/344/19
f 274/347/19 254/612/19 253/348/19
f 275/350/17 290/613/17 256/351/17
f 257/353/17 258/614/17 283/354/17
f 281/356/17 284/615/17 285/357/17
f 279/359/17 286/616/17 287/360/17
f 277/362/17 288/617/17 289/363/17
f 252/365/19 267/618/19 266/366/19
f 268/368/19 269/619/19 264/369/19
f 270/371/19 271/620/19 262/372/19
f 272/374/19 273/621/19 260/375/19
f 292/377/12 294/622/12 293/378/12
f 296/380/98 295/623/98 291/381/98
f 298/383/99 297/624/99 300/384/99
f 294/386/100 292/625/100 298/383/100
f 300/384/17 297/624/17 295/387/17
f 291/391/6 295/626/6 298/389/6
f 295/626/6 297/627/6 298/389/6
f 296/394/8 293/628/8 299/392/8
f 293/628/8 294/629/8 299/392/8
f 310/395/101 304/630/101 303/396/101
f 303/398/8 304/631/8 308/399/8
f 312/401/17 306/632/17 305/402/17
f 306/404/6 302/633/6 301/405/6
f 311/407/102 305/634/102 301/408/102
f 310/410/12 302/635/12 306/411/12
f 308/413/103 304/636/107 310/410/103
f 307/414/104 311/407/108 309/409/104
f 307/416/17 308/637/17 312/401/17
f 301/417/19 302/638/19 310/395/19
